<?xml version="1.0" encoding="UTF-8"?><svg id="a" xmlns="http://www.w3.org/2000/svg" viewBox="0 0 321.12 93.7"><defs><style>.b{fill:#2155cd;}</style></defs><path class="b" d="M12.25,32.04c-2.11-1.16-3.79-2.61-5.06-4.35s-1.9-3.81-1.9-6.2,.69-4.51,2.06-6.33c1.38-1.83,3.28-3.24,5.71-4.24,2.43-1,5.21-1.5,8.34-1.5s5.93,.56,8.34,1.68c2.41,1.12,4.28,2.69,5.61,4.72,1.32,2.03,1.99,4.34,1.99,6.96h-9.29c0-1.82-.58-3.27-1.73-4.35-1.16-1.08-2.85-1.62-5.09-1.62-1.43,0-2.63,.21-3.64,.62-1,.42-1.75,.99-2.25,1.71-.51,.72-.76,1.53-.76,2.42,0,1.32,.68,2.45,2.05,3.37,1.36,.92,3.48,1.83,6.35,2.72,4.85,1.48,8.45,3.34,10.82,5.56,2.36,2.23,3.54,5.08,3.54,8.56,0,2.51-.64,4.67-1.93,6.48s-3.11,3.19-5.47,4.14c-2.37,.95-5.14,1.43-8.32,1.43s-5.91-.53-8.59-1.57c-2.68-1.05-4.86-2.66-6.54-4.82-1.68-2.17-2.52-4.82-2.52-7.97H13.31c0,2.47,.72,4.26,2.15,5.35,1.43,1.1,3.49,1.65,6.15,1.65,2.12,0,3.72-.43,4.79-1.28,1.08-.85,1.61-1.97,1.61-3.35,0-1.03-.22-1.89-.65-2.58-.44-.69-1.24-1.36-2.4-1.99-1.17-.63-2.89-1.32-5.17-2.05-2.92-.95-5.44-2-7.55-3.16"/><path class="b" d="M70.92,40.07h-20.29c.34,2,1.17,3.58,2.49,4.76,1.32,1.18,3.03,1.77,5.1,1.77,1.54,0,2.97-.29,4.29-.88,1.32-.58,2.44-1.46,3.37-2.63l4.3,4.95c-1.13,1.62-2.77,2.99-4.94,4.09-2.17,1.11-4.7,1.66-7.61,1.66-3.28,0-6.14-.69-8.56-2.08-2.42-1.39-4.28-3.26-5.58-5.64-1.29-2.37-1.94-4.99-1.94-7.86v-1.13c0-3.21,.6-6.06,1.81-8.58s2.95-4.47,5.22-5.89,4.96-2.12,8.07-2.12,5.61,.64,7.74,1.93,3.75,3.11,4.87,5.47c1.11,2.37,1.66,5.15,1.66,8.35v3.83Zm-8.78-6.71c-.04-1.74-.52-3.11-1.44-4.12-.92-1.01-2.29-1.51-4.11-1.51-1.7,0-3.03,.56-3.99,1.69-.96,1.13-1.59,2.68-1.89,4.66h11.42v-.71h.01Z"/><path class="b" d="M102.52,41.97c0,2.27-.59,4.31-1.78,6.11s-2.79,3.21-4.82,4.21c-2.03,1.01-4.28,1.51-6.75,1.51-3.22,0-5.95-.7-8.19-2.11-2.23-1.4-3.91-3.33-5.03-5.78-1.12-2.45-1.68-5.24-1.68-8.37v-.77c0-3.12,.56-5.91,1.68-8.37,1.12-2.45,2.79-4.38,5.01-5.78s4.94-2.11,8.14-2.11c2.63,0,4.96,.51,6.99,1.53s3.61,2.48,4.73,4.39c1.13,1.91,1.69,4.16,1.69,6.75h-8.4c-.02-1.58-.48-2.89-1.39-3.92s-2.18-1.54-3.8-1.54c-2.18,0-3.67,.82-4.48,2.45-.81,1.63-1.21,3.83-1.21,6.6v.77c0,2.83,.4,5.04,1.2,6.65,.8,1.6,2.32,2.4,4.55,2.4,1.54,0,2.78-.42,3.71-1.25s1.4-1.96,1.42-3.38h8.41Z"/><path class="b" d="M135.12,21.11V53.21h-8.4l-.24-3.35c-1.01,1.26-2.25,2.24-3.71,2.92-1.47,.68-3.14,1.02-5.02,1.02-3.34,0-5.96-.97-7.85-2.91s-2.83-4.95-2.83-9.02V21.11h8.93v20.83c0,1.58,.39,2.75,1.17,3.5s1.87,1.13,3.25,1.13c2.75,0,4.66-.96,5.73-2.88V21.11h8.97Z"/><path class="b" d="M158.65,21.21c.51,.07,.93,.15,1.25,.25l-.12,8.66c-1.14-.16-2.2-.24-3.17-.24-3.21,0-5.29,1.06-6.26,3.17v20.74h-8.96V21.7h8.43l.27,3.89c.79-1.44,1.79-2.55,3.01-3.32,1.21-.77,2.58-1.16,4.11-1.16,.45,0,.94,.03,1.45,.1"/><path class="b" d="M192.03,40.07h-20.29c.34,2,1.17,3.58,2.49,4.76s3.03,1.77,5.1,1.77c1.54,0,2.97-.29,4.29-.88,1.32-.58,2.44-1.46,3.37-2.63l4.3,4.95c-1.13,1.62-2.77,2.99-4.94,4.09-2.17,1.11-4.7,1.66-7.61,1.66-3.28,0-6.14-.69-8.56-2.08-2.42-1.39-4.28-3.26-5.58-5.64-1.29-2.37-1.94-4.99-1.94-7.86v-1.13c0-3.21,.6-6.06,1.81-8.58,1.21-2.51,2.95-4.47,5.22-5.89s4.96-2.12,8.07-2.12,5.61,.64,7.74,1.93,3.75,3.11,4.87,5.47c1.11,2.37,1.66,5.15,1.66,8.35v3.83Zm-8.78-6.71c-.04-1.74-.52-3.11-1.44-4.12-.92-1.01-2.29-1.51-4.11-1.51-1.7,0-3.03,.56-3.99,1.69-.96,1.13-1.59,2.68-1.89,4.66h11.42v-.71h.01Z"/><path class="b" d="M226.57,53.8h-22.07c-3.16,0-5.73-2.57-5.73-5.73V5.84h4.05V48.07c0,.93,.75,1.68,1.68,1.68h22.07v4.05Z"/><path class="b" d="M265.44,23.93c1.75,1.88,2.63,4.87,2.63,8.96v20.92h-3.56v-20.92c0-3.17-.64-5.41-1.93-6.73-1.29-1.32-3.16-1.99-5.64-1.99-2.31,0-4.29,.73-5.93,2.18s-2.85,3.26-3.62,5.42v22.04h-3.56V21.7h3.41l.12,5.43c1.15-1.88,2.62-3.35,4.42-4.42s3.82-1.6,6.05-1.6c3.32,0,5.86,.94,7.61,2.82"/><polygon class="b" points="284.86 37.63 280.8 41.52 280.8 53.8 277.27 53.8 277.27 8.23 280.8 8.23 280.8 37.37 284.15 33.75 296.46 21.7 300.94 21.7 287.32 35.23 302.13 53.8 297.86 53.8 284.86 37.63"/><rect x="78.39" y="65.61" width="3.24" height="15.21"/><path d="M117.36,69.8h2.9v1.5c.78-.98,2.14-1.76,3.51-1.76v2.83c-.2-.05-.48-.09-.8-.09-.96,0-2.24,.55-2.71,1.25v7.28h-2.9v-11.02h0Z"/><path d="M125.28,66.45c0-.96,.8-1.74,1.73-1.74s1.74,.78,1.74,1.74-.78,1.73-1.74,1.73-1.73-.78-1.73-1.73m.3,3.35h2.9v11.02h-2.9v-11.02Z"/><path d="M156.01,78.08v-5.75h-1.83v-2.53h1.83v-3.01h2.92v3.01h2.24v2.53h-2.24v4.97c0,.69,.37,1.21,1.01,1.21,.43,0,.84-.16,1-.32l.62,2.19c-.43,.39-1.21,.71-2.42,.71-2.03,0-3.13-1.05-3.13-3.01"/><path class="b" d="M316.03,40.67c1.02,.62,1.83,1.46,2.42,2.53,.6,1.07,.9,2.26,.9,3.56s-.3,2.49-.9,3.57c-.6,1.07-1.41,1.92-2.42,2.55-1.02,.63-2.13,.94-3.34,.94s-2.33-.31-3.35-.94c-1.02-.62-1.83-1.47-2.43-2.55-.6-1.07-.89-2.26-.89-3.57s.3-2.49,.89-3.56c.6-1.07,1.41-1.91,2.43-2.53s2.13-.93,3.35-.93,2.32,.31,3.34,.93m-.41,11.49c.9-.55,1.61-1.3,2.14-2.26,.53-.95,.79-2,.79-3.15s-.26-2.19-.79-3.14-1.24-1.7-2.14-2.25c-.9-.55-1.87-.82-2.93-.82s-2.05,.27-2.95,.82c-.9,.55-1.61,1.3-2.14,2.25-.53,.95-.79,2-.79,3.14s.26,2.2,.79,3.15,1.24,1.7,2.14,2.26c.9,.55,1.88,.83,2.95,.83s2.04-.27,2.93-.83m-.21-2.92c0,.53,.05,.93,.16,1.19v.15h-.96c-.09-.21-.13-.67-.13-1.35v-.4c0-.53-.12-.91-.36-1.14s-.64-.35-1.2-.35h-1.76v3.24h-.92v-7.88h2.41c.93,0,1.64,.2,2.13,.59s.74,.97,.74,1.74c0,.83-.44,1.45-1.32,1.85,.8,.28,1.2,.93,1.2,1.94v.42h.01Zm-1.3-3.14c.34-.25,.5-.6,.5-1.05,0-.36-.06-.64-.18-.86s-.33-.38-.61-.48c-.29-.1-.67-.16-1.16-.16h-1.49v2.93h1.69c.5,0,.92-.13,1.25-.38"/><path d="M219.31,73.34c0-1.39-.62-2.28-2.03-2.28-1.14,0-2.35,.82-2.92,1.69v8.07h-1.71v-7.48c0-1.39-.6-2.28-2.03-2.28-1.12,0-2.3,.82-2.9,1.71v8.05h-1.71v-11.02h1.71v1.6c.45-.71,1.94-1.87,3.56-1.87s2.65,.91,2.97,2.06c.62-1.01,2.1-2.06,3.7-2.06,2.01,0,3.08,1.12,3.08,3.33v7.96h-1.71v-7.48h0Z"/><path d="M67.59,73.61c0-1.94-.98-2.55-2.46-2.55-1.35,0-2.62,.82-3.26,1.71v8.05h-1.71v-11.02h1.71v1.6c.78-.91,2.28-1.87,3.92-1.87,2.3,0,3.51,1.16,3.51,3.56v7.73h-1.71v-7.21Z"/><path d="M98.24,73.86c0-1.03-.45-1.76-1.64-1.76-1.03,0-1.87,.68-2.28,1.28v7.44h-2.92v-6.96c0-1.03-.46-1.76-1.64-1.76-1.01,0-1.85,.68-2.28,1.3v7.41h-2.9v-11.02h2.9v1.44c.46-.66,1.92-1.71,3.6-1.71s2.65,.75,3.06,2.01c.64-1,2.1-2.01,3.78-2.01,2.03,0,3.24,1.07,3.24,3.33v7.96h-2.92v-6.96h0Z"/><path d="M257,73.61c0-1.94-.98-2.55-2.46-2.55-1.35,0-2.62,.82-3.26,1.71v8.05h-1.71v-11.02h1.71v1.6c.78-.91,2.28-1.87,3.92-1.87,2.3,0,3.51,1.16,3.51,3.56v7.73h-1.71v-7.21Z"/><path d="M149.66,79.68c-.75,.89-2.05,1.41-3.49,1.41-1.76,0-3.83-1.19-3.83-3.65s2.08-3.51,3.83-3.51c1.46,0,2.76,.46,3.49,1.35v-1.53c0-1.12-.96-1.85-2.42-1.85-1.19,0-2.28,.43-3.22,1.3l-1.1-1.94c1.35-1.19,3.08-1.74,4.81-1.74,2.51,0,4.81,1.01,4.81,4.18v7.12h-2.9v-1.14h.02Zm0-2.88c-.48-.64-1.39-.96-2.33-.96-1.14,0-2.08,.6-2.08,1.67s.94,1.62,2.08,1.62c.94,0,1.85-.32,2.33-.96v-1.37Z"/><path d="M169.76,79.68c-.75,.89-2.05,1.41-3.49,1.41-1.76,0-3.83-1.19-3.83-3.65s2.08-3.51,3.83-3.51c1.46,0,2.76,.46,3.49,1.35v-1.53c0-1.12-.96-1.85-2.42-1.85-1.19,0-2.28,.43-3.22,1.3l-1.1-1.94c1.35-1.19,3.08-1.74,4.81-1.74,2.51,0,4.81,1.01,4.81,4.18v7.12h-2.9v-1.14h.02Zm0-2.88c-.48-.64-1.39-.96-2.33-.96-1.14,0-2.08,.6-2.08,1.67s.94,1.62,2.08,1.62c.94,0,1.85-.32,2.33-.96v-1.37Z"/><path d="M55.02,79.57c-.91,1-2.17,1.53-3.65,1.53-1.87,0-3.85-1.25-3.85-3.65s1.99-3.63,3.85-3.63c1.51,0,2.76,.48,3.65,1.5v-1.98c0-1.48-1.19-2.33-2.78-2.33-1.32,0-2.39,.48-3.37,1.53l-.8-1.19c1.19-1.23,2.6-1.83,4.4-1.83,2.33,0,4.27,1.05,4.27,3.72v7.57h-1.71v-1.25h-.01Zm0-3.14c-.66-.91-1.83-1.37-3.04-1.37-1.59,0-2.71,1-2.71,2.42s1.12,2.39,2.71,2.39c1.21,0,2.37-.45,3.04-1.37v-2.08h0Z"/><path d="M192.33,75.3c0-3.19,2.1-5.77,5.45-5.77s5.45,2.58,5.45,5.77-2.1,5.79-5.45,5.79-5.45-2.6-5.45-5.79m9.1,0c0-2.24-1.3-4.24-3.65-4.24s-3.67,2.01-3.67,4.24,1.32,4.27,3.67,4.27,3.65-2.01,3.65-4.27"/><path d="M244.43,79.57c-.91,1-2.17,1.53-3.65,1.53-1.87,0-3.85-1.25-3.85-3.65s1.99-3.63,3.85-3.63c1.51,0,2.76,.48,3.65,1.5v-1.98c0-1.48-1.19-2.33-2.78-2.33-1.32,0-2.4,.48-3.38,1.53l-.8-1.19c1.19-1.23,2.6-1.83,4.4-1.83,2.33,0,4.27,1.05,4.27,3.72v7.57h-1.71v-1.25h0Zm0-3.14c-.66-.91-1.83-1.37-3.03-1.37-1.6,0-2.72,1-2.72,2.42s1.12,2.39,2.72,2.39c1.21,0,2.37-.45,3.03-1.37v-2.08h0Z"/><polygon points="129.77 69.8 132.87 69.8 135.75 77.47 138.62 69.8 141.75 69.8 137.32 80.82 134.2 80.82 129.77 69.8"/><path d="M186.53,69.53c2.01,0,3.19,.82,4.04,1.92l-1.14,1.05c-.73-1-1.66-1.44-2.81-1.44-2.35,0-3.81,1.8-3.81,4.24s1.46,4.27,3.81,4.27c1.14,0,2.08-.45,2.81-1.43l1.14,1.05c-.85,1.1-2.03,1.92-4.04,1.92-3.29,0-5.5-2.51-5.5-5.8s2.21-5.77,5.5-5.77"/><path d="M104.02,85.02v-15.21h2.9v1.39c.85-1.07,2.05-1.67,3.4-1.67,2.83,0,4.88,2.1,4.88,5.77s-2.05,5.79-4.88,5.79c-1.3,0-2.51-.55-3.4-1.69v5.61h-2.9Zm5.38-12.9c-.94,0-2.01,.55-2.49,1.25v3.9c.48,.69,1.55,1.25,2.49,1.25,1.66,0,2.78-1.3,2.78-3.22s-1.12-3.19-2.78-3.19"/><path d="M224.45,85.02v-15.21h1.71v1.64c.8-1.12,2.17-1.92,3.72-1.92,2.9,0,4.9,2.19,4.9,5.77s-2.01,5.79-4.9,5.79c-1.51,0-2.83-.71-3.72-1.94v5.86h-1.71Zm4.99-13.95c-1.35,0-2.69,.8-3.29,1.76v4.97c.6,.96,1.94,1.78,3.29,1.78,2.21,0,3.54-1.83,3.54-4.27s-1.32-4.24-3.54-4.24"/><path d="M262.73,83.76c.75,0,1.25-.25,1.64-1.16l.73-1.66-4.61-11.13h1.85l3.67,9.03,3.65-9.03h1.87l-5.52,13.25c-.66,1.6-1.78,2.21-3.24,2.24-.36,0-.94-.07-1.26-.16l.27-1.55c.25,.12,.66,.18,.94,.18"/><path class="b" d="M234.2,10.69c.45,.45,.67,1.03,.67,1.72s-.22,1.23-.67,1.68c-.44,.44-1.04,.67-1.79,.67s-1.32-.22-1.76-.67c-.45-.45-.67-1-.67-1.68s.22-1.27,.67-1.72c.44-.45,1.03-.68,1.76-.68s1.35,.23,1.79,.68m-3.57,11.01h3.53V53.8h-3.53V21.7Z"/></svg>