<svg width="185" height="52" viewBox="0 0 185 52" fill="none" xmlns="http://www.w3.org/2000/svg">
<path fill-rule="evenodd" clip-rule="evenodd" d="M25.3373 11.8857C24.8415 11.5161 24.2394 11.3159 23.6204 11.3148C23.0014 11.3137 22.3986 11.5119 21.9016 11.8798L12.6292 18.7423L9.69457 16.5506L23.0478 6.88135C23.2324 6.74704 23.455 6.67468 23.6835 6.67468C23.912 6.67468 24.1346 6.74704 24.3193 6.88135L40.7856 18.9431L45.6349 15.3765L25.3955 0.556225C24.9043 0.196382 24.3111 0.0016019 23.7017 9.83788e-06C23.0924 -0.00158222 22.4982 0.190096 22.0051 0.547368L0 16.4817L21.9716 32.8786C22.4673 33.2484 23.0695 33.4487 23.6885 33.4498C24.3075 33.4509 24.9103 33.2526 25.4073 32.8845L34.6797 26.0221L37.6163 28.2137L24.266 37.883C24.0815 38.0176 23.8588 38.0901 23.6303 38.0901C23.4017 38.0901 23.179 38.0176 22.9945 37.883L6.52223 25.8213L1.67692 29.3878L21.9134 44.2081C22.4046 44.568 22.9977 44.7628 23.6071 44.7643C24.2165 44.7659 24.8106 44.5743 25.3037 44.217L47.3089 28.2826L25.3373 11.8857ZM24.3459 26.5259C24.1598 26.6644 23.9339 26.7393 23.7018 26.7393C23.4696 26.7393 23.2437 26.6644 23.0576 26.5259L17.435 22.3325L22.959 18.2414C23.1453 18.1029 23.3714 18.0282 23.6036 18.0282C23.8359 18.0282 24.062 18.1029 24.2483 18.2414L29.8709 22.4358L24.3459 26.5259Z" fill="#513BE3"/>
<path d="M66.7567 26.9753L60.3992 26.8627C60.3992 29.4532 61.0743 31.7621 62.4246 33.7895C63.7749 35.8169 65.6315 37.3374 67.9945 38.4637C70.3575 39.5901 73.058 40.1532 76.2087 40.1532C79.0217 40.1532 81.4973 39.6464 83.7477 38.6327C85.9419 37.619 87.686 36.1548 88.9238 34.2964C90.1615 32.4943 90.7804 30.4106 90.7804 28.0453C90.7804 25.68 90.1615 23.709 89.0363 22.2448C87.8548 20.7806 86.3357 19.7106 84.5354 18.9221C82.6787 18.19 80.4845 17.5705 77.9528 17.12C75.421 16.6695 73.5081 16.2753 72.1578 15.8811C70.8076 15.5432 69.6823 14.98 68.8947 14.1916C68.107 13.4595 67.7132 12.4458 67.7132 11.1505C67.7132 9.34843 68.3883 7.99685 69.7386 6.98317C71.0889 5.96948 72.9455 5.46264 75.2522 5.46264C77.6152 5.46264 79.5281 6.08211 81.1034 7.32106C82.6225 8.56001 83.5227 10.1932 83.7477 12.2205H90.1053C89.9927 9.85528 89.2613 7.77159 88.0236 5.91316C86.7296 4.11106 84.9855 2.64685 82.7913 1.57684C80.5408 0.563158 78.0653 0 75.2522 0C72.4954 0 70.0762 0.506843 67.9382 1.46421C65.8003 2.4779 64.1687 3.82948 62.9872 5.57527C61.8057 7.37738 61.2431 9.34843 61.2431 11.6011C61.2431 14.079 61.8057 16.05 62.9309 17.5142C64.0562 19.0348 65.5752 20.1611 67.3756 20.8932C69.176 21.6253 71.3702 22.1884 73.9582 22.639C76.4337 23.0895 78.4029 23.54 79.8094 23.9342C81.1597 24.3848 82.2849 24.9479 83.0726 25.7363C83.8602 26.5248 84.3103 27.5385 84.3103 28.8337C84.3103 30.6921 83.5227 32.1564 82.0599 33.17C80.5971 34.1837 78.6279 34.6906 76.2649 34.6906C73.5081 34.6906 71.2577 34.0148 69.5698 32.6069C67.882 31.199 66.9255 29.3406 66.7567 26.9753Z" fill="#513BE3"/>
<path d="M97.7138 16.3316V31.9874C97.7138 34.6906 98.3326 36.6616 99.5704 37.9006C100.808 39.1958 102.834 39.8153 105.59 39.8153H111.442V34.4653H106.828C105.703 34.4653 104.972 34.24 104.521 33.7895C104.071 33.339 103.846 32.4943 103.846 31.3679V16.3316H110.766V10.9816H103.846V2.92842H97.7138V10.9816H92.7065V16.3316H97.7138Z" fill="#513BE3"/>
<path d="M119.429 10.9816H112.958L124.211 40.0406L123.029 42.8001C122.523 44.039 122.073 44.8837 121.623 45.2216C121.173 45.5595 120.329 45.7285 119.203 45.7285H114.928V51.0785H121.454C122.804 51.0785 123.929 50.8532 124.773 50.4027C125.561 49.9522 126.292 49.2201 126.855 48.319C127.418 47.418 128.037 46.0664 128.712 44.3206L141.764 10.9816H135.294L127.474 33.2264L119.429 10.9816Z" fill="#513BE3"/>
<path d="M144.838 0.394209V39.8153H150.914V0.394209H144.838Z" fill="#513BE3"/>
<path d="M161.934 38.3511C164.184 39.59 166.716 40.1532 169.642 40.1532C172.511 40.1532 175.043 39.59 177.293 38.3511C179.544 37.1122 181.231 35.4227 182.469 33.17C183.707 30.9174 184.326 28.3269 184.326 25.3985C184.326 22.5263 183.707 19.9921 182.469 17.7395C181.231 15.4869 179.544 13.7411 177.293 12.5021C175.043 11.2632 172.511 10.6437 169.642 10.6437C166.716 10.6437 164.184 11.2632 161.934 12.5021C159.683 13.7411 157.995 15.4869 156.758 17.7395C155.52 19.9921 154.957 22.5263 154.957 25.3985C154.957 28.3269 155.52 30.9174 156.758 33.17C157.995 35.4227 159.683 37.1122 161.934 38.3511ZM175.774 32.3253C174.199 34.1274 172.173 34.9722 169.642 34.9722C167.053 34.9722 165.028 34.1274 163.509 32.3253C161.934 30.5232 161.202 28.2142 161.202 25.3985C161.202 22.5827 161.934 20.33 163.509 18.5279C165.028 16.7258 167.053 15.8248 169.642 15.8248C172.173 15.8248 174.199 16.7258 175.774 18.5279C177.349 20.33 178.137 22.5827 178.137 25.3985C178.137 28.2142 177.349 30.5232 175.774 32.3253Z" fill="#513BE3"/>
</svg>
