<svg width="111" height="22" viewBox="0 0 111 22" fill="none" xmlns="http://www.w3.org/2000/svg">
<path d="M19.1636 9.08726V1.42913C19.1636 0.638779 18.5432 0 17.7755 0H1.38811C0.620443 0 0 0.638779 0 1.42913V20.5708C0 21.3612 0.620443 22 1.38811 22H17.779C18.5467 22 19.1671 21.3612 19.1671 20.5708V17.8028C19.1671 17.7775 19.1741 17.7559 19.1882 17.7342L25.1332 9.56364C25.2419 9.41567 25.1367 9.20275 24.9579 9.20275H19.2758C19.2127 9.20275 19.1636 9.15222 19.1636 9.08726Z" fill="black"/>
<path d="M52.1803 0C46.1651 0 41.454 4.83234 41.454 11C41.454 17.1676 46.1651 22 52.1803 22C58.1954 22 62.9066 17.1676 62.9066 11C62.9066 4.83234 58.1954 0 52.1803 0ZM52.1803 16.4242C49.2007 16.4242 47.038 14.1434 47.038 11C47.038 7.85662 49.2007 5.57578 52.1803 5.57578C55.1598 5.57578 57.3226 7.85662 57.3226 11C57.3226 14.1434 55.1598 16.4242 52.1803 16.4242Z" fill="black"/>
<path d="M86.5816 11C86.5816 4.72769 82.1684 0 76.3145 0C70.075 0 65.5461 4.62664 65.5461 11C65.5461 17.4744 70.1627 22 76.7737 22C80.3982 22 83.234 20.7369 85.211 18.2395C85.2987 18.1312 85.2671 17.9652 85.1479 17.8966L81.0642 15.4787C80.9836 15.4317 80.8819 15.4426 80.8118 15.5075C79.8339 16.4098 78.3897 16.9403 76.8578 16.9403C74.0816 16.9403 72.2904 15.8504 71.5262 13.6995L71.358 13.2267H86.203C86.3117 13.2267 86.4063 13.1473 86.4239 13.0354C86.529 12.3858 86.5816 11.7037 86.5816 11ZM71.2738 9.11613L71.393 8.67224C72.0205 6.31561 73.7556 5.0164 76.2724 5.0164C78.6736 5.0164 80.4052 6.34809 81.0292 8.67224L81.1484 9.11613H71.2738Z" fill="black"/>
<path d="M110.256 11C110.256 4.72769 105.843 0 99.9893 0C93.7498 0 89.2209 4.62664 89.2209 11C89.2209 17.4744 93.8375 22 100.449 22C104.073 22 106.909 20.7369 108.886 18.2395C108.973 18.1312 108.942 17.9652 108.823 17.8966L104.739 15.4787C104.658 15.4317 104.557 15.4426 104.487 15.5075C103.509 16.4098 102.064 16.9403 100.533 16.9403C97.7564 16.9403 95.9652 15.8504 95.201 13.6995L95.0328 13.2267H109.878C109.986 13.2267 110.081 13.1473 110.099 13.0354C110.204 12.3858 110.256 11.7037 110.256 11ZM94.9486 9.11613L95.0678 8.67224C95.6953 6.31561 97.4304 5.0164 99.9472 5.0164C102.348 5.0164 104.08 6.34809 104.704 8.67224L104.823 9.11613H94.9486Z" fill="black"/>
<path d="M39.2527 0.227362C39.2527 0.10105 39.1545 0 39.0318 0H37.7769H36.8165H23.349C23.2263 0 23.1282 0.10105 23.1282 0.227362V5.34842C23.1282 5.47473 23.2263 5.57578 23.349 5.57578H32.221C32.3121 5.57578 32.3647 5.68405 32.3086 5.75623L23.1737 18.1926C23.1457 18.2323 23.1282 18.2792 23.1282 18.3297V21.769C23.1282 21.8953 23.2263 21.9964 23.349 21.9964H25.6064H39.0318C39.1545 21.9964 39.2527 21.8953 39.2527 21.769V16.6516C39.2527 16.5252 39.1545 16.4242 39.0318 16.4242H30.4964C30.4052 16.4242 30.3527 16.3159 30.4087 16.2438L39.2106 4.28018C39.2387 4.24048 39.2562 4.19357 39.2562 4.14304V0.227362H39.2527Z" fill="black"/>
</svg>
